<?xml version="1.0" encoding="UTF-8" standalone="no"?> 
<svg 
id="Layer_1" 
data-name="Layer 1" 
xmlns="http://www.w3.org/2000/svg" 

 version="1.0" 
 width="252.000000pt" height="257.000000pt" 
 viewBox="0 0 252.000000 257.000000"
 preserveAspectRatio="xMidYMid meet">
<defs>
<style>.cls-1{fill:#3b4551;}.cls-2{fill:#2b77c0;}
</style>
</defs>
<title>Marvin express</title>

<g transform="translate(0.000000,257.000000) scale(0.100000,-0.100000)"
fill="#000000" stroke="none">
<path class="cls-1" d="M1618 2484 c17 -8 32 -16 32 -19 0 -3 -75 -2 -167 2 -345 15 -412 10
-598 -52 -203 -68 -267 -99 -363 -178 -25 -21 -55 -43 -66 -49 -12 -6 -25 -17
-29 -24 -14 -25 -95 -75 -99 -62 -5 14 -116 -123 -154 -190 -15 -26 -40 -68
-55 -93 -16 -25 -32 -61 -35 -80 -5 -25 6 -11 37 51 24 46 50 86 57 88 7 2 -7
-36 -32 -85 -25 -48 -48 -99 -51 -113 -3 -14 12 11 33 55 39 79 115 174 126
157 3 -5 -17 -58 -43 -118 -27 -60 -52 -127 -56 -149 -4 -22 -11 -44 -15 -50
-15 -21 -30 -105 -40 -231 -10 -128 -7 -186 19 -424 7 -67 46 -202 74 -255 17
-34 69 -96 75 -90 3 3 -9 20 -26 38 -46 47 -88 174 -108 322 -12 90 -14 130
-6 151 7 19 11 22 11 11 2 -40 86 -278 129 -364 25 -51 65 -116 89 -145 24
-29 59 -74 79 -101 20 -26 45 -52 55 -58 10 -5 28 -27 39 -48 27 -53 95 -101
230 -159 269 -117 454 -143 660 -95 71 16 313 129 414 193 35 22 105 55 156
74 134 50 158 77 186 213 9 43 34 114 55 158 21 44 55 136 75 205 34 112 37
136 37 232 -1 80 2 108 12 112 7 2 19 30 26 62 l13 57 14 -42 c8 -23 25 -49
39 -58 14 -9 29 -28 35 -42 10 -25 11 -24 26 28 13 47 14 68 3 159 -14 111
-48 248 -74 302 -9 17 -15 36 -13 43 1 7 1 9 -2 4 -2 -4 -14 7 -26 25 -12 18
-39 58 -59 88 -74 109 -252 293 -376 387 -25 20 -80 51 -121 70 -41 20 -93 44
-115 54 -45 21 -124 49 -134 48 -3 0 9 -7 27 -15z m220 -179 c100 -51 145 -81
209 -140 82 -76 128 -135 121 -157 -2 -6 -13 4 -24 23 -27 45 -231 184 -399
271 l-130 67 48 1 c40 0 70 -11 175 -65z m-283 -81 c73 -19 121 -45 217 -117
113 -86 202 -166 274 -247 77 -88 107 -132 134 -199 19 -49 19 -50 -1 -107
-23 -64 -20 -145 5 -180 12 -16 18 -16 40 -6 49 22 49 22 43 -145 -4 -116 -11
-179 -26 -238 -23 -84 -115 -282 -152 -325 -11 -14 -18 -18 -14 -10 4 8 -3 4
-15 -10 -90 -106 -128 -144 -202 -207 -104 -89 -225 -150 -315 -159 -34 -4
-61 -10 -59 -13 2 -3 -82 -6 -187 -6 -180 0 -198 2 -292 28 -289 81 -363 116
-473 224 -89 88 -105 114 -190 329 -85 215 -105 309 -100 454 3 72 13 147 27
200 45 175 187 412 298 498 130 102 265 173 353 186 25 4 95 18 155 31 61 13
137 28 170 33 76 13 232 5 310 -14z"/>
<path class="cls-1" d="M1690 1488 c-12 -4 -32 -5 -44 -2 -22 5 -23 3 -29 -103 -4 -68 -14
-130 -27 -168 -27 -80 -23 -87 48 -85 77 3 82 2 82 -14 0 -19 10 -25 54 -31
45 -5 51 5 36 71 -10 42 -23 162 -35 304 -2 32 -6 35 -33 35 -17 1 -41 -3 -52
-7z"/>
<path class="cls-1" d="M915 1481 l-30 -6 -3 -160 c-2 -156 -2 -160 20 -177 20 -15 21 -18 5
-18 -10 0 -15 -4 -12 -10 3 -5 24 -10 45 -10 30 0 39 4 39 18 1 9 1 40 2 67
l1 50 13 -50 c7 -27 16 -67 20 -88 8 -46 26 -44 38 4 4 19 15 58 23 87 13 46
17 51 30 38 9 -10 28 -14 52 -12 l37 4 1 128 c1 84 -3 132 -10 136 -6 4 -32 8
-57 8 -43 0 -47 -2 -53 -27 -20 -80 -28 -103 -36 -103 -12 0 -42 56 -50 95 -6
32 -22 38 -75 26z"/>
<path class="cls-1" d="M1255 1481 l-30 -6 2 -163 c1 -146 3 -165 20 -177 17 -14 17 -14 0
-15 -36 0 -5 -20 32 -20 36 0 39 2 44 36 3 20 4 50 1 68 -9 61 15 -10 27 -79
12 -72 33 -87 44 -32 4 17 13 58 22 89 14 51 17 55 31 42 9 -9 24 -13 36 -10
12 3 29 6 39 6 16 0 17 11 15 133 l-3 132 -56 3 -56 3 -13 -61 c-7 -33 -16
-63 -20 -65 -13 -8 -40 31 -53 76 -14 47 -26 53 -82 40z"/>
<path class="cls-1" d="M708 1473 l-38 -4 -1 -87 c-2 -162 1 -206 19 -219 14 -12 14 -13 -2
-13 -9 0 -14 -4 -11 -10 10 -16 85 -13 85 4 0 7 13 16 29 19 55 11 54 87 0 87
l-30 0 2 74 3 73 29 -1 c35 -1 52 21 43 57 -7 29 -22 31 -128 20z"/>
</g>
</svg>